<?xml version="1.0" encoding="UTF-8" standalone="no"?>
<!DOCTYPE svg PUBLIC "-//W3C//DTD SVG 1.1//EN"
 "http://www.w3.org/Graphics/SVG/1.1/DTD/svg11.dtd">
<!-- Generated by graphviz version 12.2.1 (0)
 -->
<!-- Pages: 1 -->
<svg width="165pt" height="95pt"
 viewBox="0.00 0.00 165.21 94.98" xmlns="http://www.w3.org/2000/svg" xmlns:xlink="http://www.w3.org/1999/xlink">
<g id="graph0" class="graph" transform="scale(1 1) rotate(0) translate(4 90.98)">
<polygon fill="white" stroke="none" points="-4,4 -4,-90.98 161.21,-90.98 161.21,4 -4,4"/>
<!-- Dry -->
<g id="node1" class="node">
<title>Dry</title>
<ellipse fill="none" stroke="black" cx="24.62" cy="-26.61" rx="24.62" ry="24.62"/>
<text text-anchor="middle" x="24.62" y="-21.19" font-family="Helvetica,Arial,sans-serif" font-size="14.00">Dry</text>
</g>
<!-- Dry&#45;&gt;Dry -->
<g id="edge1" class="edge">
<title>Dry&#45;&gt;Dry</title>
<path fill="none" stroke="black" d="M15.06,-49.41C14.02,-59.99 17.2,-69.23 24.62,-69.23 29.13,-69.23 32.08,-65.8 33.46,-60.72"/>
<polygon fill="black" stroke="black" points="36.94,-61.12 34.08,-50.92 29.95,-60.68 36.94,-61.12"/>
<text text-anchor="middle" x="24.62" y="-71.68" font-family="Helvetica,Arial,sans-serif" font-size="14.00">0.9</text>
</g>
<!-- Wet -->
<g id="node2" class="node">
<title>Wet</title>
<ellipse fill="none" stroke="black" cx="130.6" cy="-26.61" rx="26.61" ry="26.61"/>
<text text-anchor="middle" x="130.6" y="-21.19" font-family="Helvetica,Arial,sans-serif" font-size="14.00">Wet</text>
</g>
<!-- Dry&#45;&gt;Wet -->
<g id="edge2" class="edge">
<title>Dry&#45;&gt;Wet</title>
<path fill="none" stroke="black" d="M49.73,-26.61C62.39,-26.61 78.17,-26.61 92.36,-26.61"/>
<polygon fill="black" stroke="black" points="92.28,-30.11 102.28,-26.61 92.28,-23.11 92.28,-30.11"/>
<text text-anchor="middle" x="76.61" y="-29.06" font-family="Helvetica,Arial,sans-serif" font-size="14.00">0.1</text>
</g>
<!-- Wet&#45;&gt;Dry -->
<g id="edge3" class="edge">
<title>Wet&#45;&gt;Dry</title>
<path fill="none" stroke="black" d="M107.04,-13.41C95.31,-8.09 80.64,-3.84 67.23,-6.86 63.83,-7.63 60.38,-8.71 57,-9.97"/>
<polygon fill="black" stroke="black" points="55.75,-6.7 47.95,-13.87 58.52,-13.12 55.75,-6.7"/>
<text text-anchor="middle" x="76.61" y="-9.31" font-family="Helvetica,Arial,sans-serif" font-size="14.00">0.7</text>
</g>
<!-- Wet&#45;&gt;Wet -->
<g id="edge4" class="edge">
<title>Wet&#45;&gt;Wet</title>
<path fill="none" stroke="black" d="M120.6,-51.39C119.78,-62.08 123.11,-71.23 130.6,-71.23 135.16,-71.23 138.18,-67.83 139.66,-62.75"/>
<polygon fill="black" stroke="black" points="143.14,-63.15 140.47,-52.9 136.16,-62.57 143.14,-63.15"/>
<text text-anchor="middle" x="130.6" y="-73.68" font-family="Helvetica,Arial,sans-serif" font-size="14.00">0.3</text>
</g>
</g>
</svg>
